<?xml version="1.0" encoding="UTF-8"?><svg xmlns="http://www.w3.org/2000/svg" xmlns:xlink="http://www.w3.org/1999/xlink" height="198.4" preserveAspectRatio="xMidYMid meet" version="1.1" viewBox="119.6 113.4 185.9 198.4" width="185.9" zoomAndPan="magnify">
 <g id="surface1">
  <g id="change1_1"><path d="m305.56 311.81h-185.92v-131.19h185.92v131.19" fill="#2f497b"/></g>
  <g id="change1_2"><path d="m119.64 180.62l92.96-67.23 92.96 67.23z" fill="#2f497b"/></g>
  <g id="change2_1"><path d="m269.04 241.21h-112.88v-121.18h112.88v121.18" fill="#e8eae6"/></g>
  <g id="change3_1"><path d="m258.03 137.5h-90.85v-3.25h90.85v3.25" fill="#b2cdd4"/></g>
  <g id="change3_2"><path d="m204.77 148.07h-37.59v-3.25h37.59v3.25" fill="#b2cdd4"/></g>
  <g id="change3_3"><path d="m258.03 148.07h-49.82v-3.25h49.82v3.25" fill="#b2cdd4"/></g>
  <g id="change3_4"><path d="m238.61 158.48h-71.43v-3.25h71.43v3.25" fill="#b2cdd4"/></g>
  <g id="change3_5"><path d="m257.4 158.48h-15.82v-3.25h15.82v3.25" fill="#b2cdd4"/></g>
  <g id="change3_6"><path d="m258.03 172.16h-90.85v-3.26h90.85v3.26" fill="#b2cdd4"/></g>
  <g id="change3_7"><path d="m204.77 182.73h-37.59v-3.26h37.59v3.26" fill="#b2cdd4"/></g>
  <g id="change3_8"><path d="m258.03 182.73h-49.82v-3.26h49.82v3.26" fill="#b2cdd4"/></g>
  <g id="change3_9"><path d="m238.61 193.13h-71.43v-3.25h71.43v3.25" fill="#b2cdd4"/></g>
  <g id="change3_10"><path d="m257.4 193.13h-15.82v-3.25h15.82v3.25" fill="#b2cdd4"/></g>
  <g id="change3_11"><path d="m258.03 206.02h-90.85v-3.25h90.85v3.25" fill="#b2cdd4"/></g>
  <g id="change3_12"><path d="m204.77 216.59h-37.59v-3.25h37.59v3.25" fill="#b2cdd4"/></g>
  <g id="change3_13"><path d="m258.03 216.59h-49.82v-3.25h49.82v3.25" fill="#b2cdd4"/></g>
  <g id="change3_14"><path d="m238.61 226.99h-71.43v-3.25h71.43v3.25" fill="#b2cdd4"/></g>
  <g id="change3_15"><path d="m257.4 226.99h-15.82v-3.25h15.82v3.25" fill="#b2cdd4"/></g>
  <g id="change4_1"><path d="m119.64 180.62l92.96 72.55-92.96 58.64z" fill="#3abdc4"/></g>
  <g id="change4_2"><path d="m305.56 180.62l-92.96 72.55 92.96 58.64z" fill="#3abdc4"/></g>
  <g id="change5_1"><path d="m119.64 311.81l92.96-94.09 92.96 94.09z" fill="#19b3c5"/></g>
 </g>
</svg>