<?xml version="1.0" encoding="UTF-8"?><svg xmlns="http://www.w3.org/2000/svg" xmlns:xlink="http://www.w3.org/1999/xlink" height="255.4" preserveAspectRatio="xMidYMid" version="1.1" viewBox="-0.0 -0.0 256.0 255.4" width="256.0" zoomAndPan="magnify">
 <g>
  <path d="m246.94 149.01c-0.08 0.45-0.14 0.9-0.22 1.35l-0.44-2.57c0.24 0.4 0.44 0.82 0.66 1.22 1.32-7.19 2.01-14.55 2.01-21.91 0-16.32-3.19-32.152-9.5-47.055-6.09-14.396-14.8-27.325-25.91-38.425-11.1-11.1-24.03-19.813-38.42-25.902-14.9-6.3042-30.73-9.4989-47.05-9.4989-7.69 0-15.39 0.7216-22.89 2.1609-0.02 0.004-0.04 0.004-0.06 0.0081 0.43 0.2229 0.85 0.4216 1.27 0.6527l-2.55-0.3973c0.43-0.0811 0.86-0.1703 1.28-0.2554-10.281-5.4691-21.848-8.3881-33.556-8.3881-19.115 0-37.087 7.4434-50.604 20.964-13.512 13.517-20.96 31.489-20.96 50.604 0 12.167 3.1298 24.126 9.0043 34.692 0.077-0.43 0.1297-0.88 0.2149-1.31l0.4378 2.53c-0.227-0.4-0.4257-0.81-0.6527-1.22-1.1919 6.85-1.8203 13.85-1.8203 20.84 0 16.32 3.195 32.15 9.507 47.05 6.081 14.4 14.798 27.33 25.894 38.43 11.108 11.1 24.029 19.82 38.433 25.89 14.899 6.32 30.732 9.52 47.052 9.52 7.1 0 14.22-0.65 21.17-1.88-0.4-0.23-0.82-0.44-1.23-0.68l2.58 0.46c-0.44 0.08-0.89 0.14-1.35 0.22 10.71 6.05 22.83 9.27 35.21 9.27 19.11 0 37.07-7.43 50.59-20.95 13.52-13.51 20.96-31.49 20.96-50.6 0-12.21-3.15-24.21-9.06-34.82zm-118.39 52.12c-42.942 0-62.155-21.11-62.155-36.94 0-8.11 5.992-13.8 14.25-13.8 18.378 0 13.618 26.39 47.905 26.39 17.56 0 27.25-9.53 27.25-19.29 0-5.86-2.89-12.37-14.45-15.22l-38.2-9.53c-30.763-7.72-36.346-24.35-36.346-39.981 0-32.457 30.561-44.644 59.256-44.644 26.44 0 57.61 14.611 57.61 34.083 0 8.344-7.23 13.196-15.48 13.196-15.69 0-12.8-21.71-44.4-21.71-15.67 0-24.358 7.099-24.358 17.259 0 10.137 12.378 13.377 23.138 15.827l28.27 6.28c30.97 6.9 38.82 24.98 38.82 42.01 0 26.38-20.24 46.07-61.11 46.07zm19.46 44.3c0.41 0.24 0.83 0.45 1.23 0.68 0.46-0.08 0.91-0.14 1.35-0.22l-2.58-0.46zm98.71-95.07c0.08-0.45 0.14-0.9 0.22-1.35-0.22-0.4-0.42-0.82-0.66-1.22l0.44 2.57zm-237.5-45.41c-0.0852 0.43-0.1379 0.88-0.2149 1.31 0.227 0.41 0.4257 0.82 0.6527 1.22l-0.4378-2.53zm97.171-95.909c-0.42-0.2311-0.84-0.4298-1.27-0.6527-0.42 0.0851-0.85 0.1743-1.28 0.2554l2.55 0.3973z" fill="#00AFF0"/>
 </g>
</svg>