<?xml version="1.0" encoding="UTF-8"?><svg xmlns="http://www.w3.org/2000/svg" xmlns:xlink="http://www.w3.org/1999/xlink" height="257.3" preserveAspectRatio="xMidYMid meet" version="1.0" viewBox="109.4 84.1 206.4 257.3" width="206.4" zoomAndPan="magnify"><g id="change1_1"><path d="M314.493,309.548c-1.038-6.85-3.711-13.37-6.805-19.576c-3.937-7.898-9.156-15.153-15.029-21.718 c-3.561-3.98-8.345-7.368-13.708-6.529c-2.277,0.356-4.498,1.139-6.6,2.176l38.467,57.558 C313.533,318.126,315.178,314.072,314.493,309.548z" fill="#009ED9"/></g><g id="change1_2"><path d="M196.016,137.632c2.826-4.634,1.526-10.35-0.79-15.163c-3.819-7.938-8.526-15.534-14.318-22.193 c-4.55-5.232-9.552-10.197-15.484-13.775c-3.917-2.363-8.293-2.394-12.411-1.16l38.467,57.558 C193.244,141.352,194.816,139.599,196.016,137.632z" fill="#009ED9"/></g><g id="change1_3"><path d="M276.99,224.099c-0.488,0-0.983-0.072-1.474-0.223c-2.639-0.813-4.119-3.612-3.306-6.251 c5.171-16.778,4.475-30.296-2.069-40.177c-9.814-14.817-29.964-17.036-30.167-17.057c-2.742-0.28-4.747-2.728-4.473-5.471 c0.273-2.743,2.703-4.748,5.454-4.48c1.014,0.099,24.972,2.635,37.469,21.407c8.328,12.509,9.452,28.902,3.342,48.725 C281.105,222.719,279.126,224.099,276.99,224.099z" fill="#009ED9"/></g><g id="change1_4"><path d="M250.775,229.424c-0.488,0-0.984-0.072-1.474-0.223c-2.639-0.813-4.119-3.612-3.306-6.251 c3.711-12.041,3.241-21.68-1.399-28.649c-6.979-10.484-21.168-11.979-21.311-11.993c-2.749-0.268-4.759-2.713-4.492-5.461 c0.268-2.749,2.708-4.762,5.461-4.492c0.775,0.076,19.085,2.014,28.666,16.404c6.385,9.592,7.27,22.086,2.632,37.136 C254.89,228.044,252.911,229.424,250.775,229.424z" fill="#009ED9"/></g><g id="change1_5"><path d="M303.317,218.991c-0.488,0-0.983-0.072-1.474-0.223c-2.639-0.813-4.119-3.612-3.306-6.251 c6.776-21.983,5.819-39.752-2.843-52.815c-12.995-19.597-39.501-22.488-39.768-22.515c-2.744-0.277-4.75-2.725-4.478-5.469 c0.273-2.744,2.71-4.746,5.456-4.483c1.274,0.125,31.393,3.312,47.072,26.863c10.446,15.691,11.831,36.337,4.117,61.365 C307.432,217.61,305.454,218.991,303.317,218.991z" fill="#009ED9"/></g><g id="change1_6"><path d="M259.842,273.419c-2.441,2.179-4.964,4.236-8.027,5.727c-5.077,2.471-10.985,3.465-16.596,1.763 c-5.817-1.764-10.684-5.169-15.209-9.264c-4.988-4.514-9.596-9.467-13.952-14.603c-2.496-2.942-4.93-5.931-7.318-8.962 c-3.093-3.925-5.962-8.027-8.753-12.184l0.005-0.003c-0.498-0.753-0.996-1.506-1.496-2.256c-0.19-0.279-0.378-0.56-0.566-0.84 c-0.187-0.281-0.374-0.562-0.56-0.845c-0.501-0.749-1.007-1.497-1.512-2.246l-0.005,0.003c-2.772-4.169-5.465-8.389-7.909-12.748 c-1.887-3.366-3.718-6.758-5.481-10.189c-3.079-5.99-5.893-12.142-8.156-18.477c-2.052-5.747-3.337-11.547-2.742-17.596 c0.574-5.835,3.752-10.914,7.977-14.66c2.549-2.26,5.415-3.804,8.362-5.226l-38.08-56.977c-3.609,3.209-7.363,6.752-10.142,10.392 c-2.475,3.232-4.887,6.522-7.147,9.917c-4.684,7.035-9.05,14.437-11.038,22.839c-2.058,8.704-0.428,17.861,1.787,26.52 c1.73,6.766,3.9,13.509,6.352,20.064c4.11,10.988,9.214,21.693,14.719,32.07c4.994,9.414,10.79,18.381,16.665,27.266 c0.403,0.609,1.642,2.788,6.718,10.068c4.785,7.475,6.324,9.453,6.733,10.059c5.963,8.827,12.031,17.612,18.819,25.827 c7.482,9.055,15.421,17.866,24.001,25.867c5.119,4.773,10.519,9.356,16.109,13.543c7.153,5.358,14.991,10.367,23.82,11.795 c8.522,1.378,17.032,0.175,25.324-1.462c4.001-0.79,7.963-1.76,11.896-2.81c4.426-1.175,9.136-3.288,13.481-5.396L259.842,273.419z M130.925,154.046c-5.19,0-9.398-4.208-9.398-9.398c0-5.19,4.208-9.398,9.398-9.398s9.398,4.208,9.398,9.398 C140.323,149.838,136.115,154.046,130.925,154.046z" fill="#009ED9"/></g></svg>